<?xml version="1.0" encoding="UTF-8"?>
<svg width="32px" height="32px" viewBox="0 0 32 32" version="1.1" xmlns="http://www.w3.org/2000/svg" xmlns:xlink="http://www.w3.org/1999/xlink">
    <title>logo</title>
    <g id="页面-1" stroke="none" stroke-width="1" fill="none" fill-rule="evenodd">
        <g id="logo" fill-rule="nonzero">
            <rect id="矩形" fill-opacity="0" fill="#D8D8D8" x="0" y="0" width="32" height="32"></rect>
            <g id="Path_244" transform="translate(3.999986, 0.000000)" fill="#507EFF">
                <path d="M20.389275,15.404967 C19.6510914,15.4178133 18.9530376,15.73763 18.4683161,16.2850638 C17.685778,16.2878122 16.9062497,16.1897075 16.149655,15.993257 C16.1905955,15.7837866 16.2071936,15.5704219 16.19913,15.3572678 C16.187178,14.2681932 15.7025006,13.2360115 14.8671129,12.5205691 C16.3714615,9.98224288 18.1196255,7.59135927 20.0876683,5.38065541 C21.5857398,5.3602601 22.7908553,4.16354954 22.7964201,2.69079534 C22.8144837,1.23049171 21.6310587,0.0291721943 20.1457062,0 L20.0962313,0 C18.6044303,0.00973533143 17.3865608,1.17554196 17.3370531,2.6412256 C17.3282146,3.10395258 17.4472497,3.56036798 17.6814746,3.9618384 C16.7491026,6.74318236 15.5106001,9.41614505 13.9879817,11.9332144 C13.5223519,11.7329893 13.0185798,11.6328622 12.5103942,11.639537 C11.3450956,11.6434322 10.2498965,12.1872753 9.55521926,13.1069885 C7.92756301,12.2655243 6.43411356,11.1941634 5.12245683,9.92704267 L5.12245683,9.87840821 C5.10830294,8.49125526 3.95538798,7.37669538 2.54422403,7.38594785 C1.13306008,7.39520031 -0.00462798544,8.5247788 -4.4408921e-16,9.91199392 C0.00471344205,11.299209 1.14998301,12.4213598 2.56117835,12.4214296 C3.02561792,12.4065418 3.4807666,12.2895743 3.89319539,12.0791178 C5.71699707,12.4129144 7.46716943,13.0583569 9.06427583,13.98615 C8.88333113,14.4199516 8.79929439,14.8869007 8.81785268,15.3553973 C8.81961311,17.2386266 10.2624879,18.8189742 12.1669241,19.0235583 C12.3648313,21.6396029 12.215791,24.2698403 11.7235527,26.8480956 C10.8697979,27.3260352 10.3566238,28.2304538 10.3915357,29.1956439 C10.3663093,30.1832718 10.8847389,31.1075442 11.7478328,31.613693 C12.6109268,32.1198418 13.6845833,32.1292249 14.5566954,31.6382408 C15.4288075,31.1472566 15.9638721,30.232191 15.9565126,29.2442783 L15.9565126,29.1507505 C15.9687173,28.1280783 15.3984261,27.1844743 14.4789251,26.7059333 C13.7172146,24.162723 13.3188711,21.527765 13.2953328,18.8767196 C14.3866955,18.6236709 15.3070978,17.9067116 15.8071364,16.9201177 C16.5176572,17.2743951 17.208145,17.6662265 17.8755686,18.0938918 C17.9485537,18.7615322 18.2928852,19.371853 18.8303703,19.7862591 C19.3678555,20.2006653 20.0528822,20.3839894 20.7298908,20.2946014 C22.0186009,20.1462904 22.992491,19.0765985 23.0000284,17.8011497 C22.9110017,16.4495717 21.7670784,15.3996643 20.389275,15.404967" id="路径"></path>
            </g>
        </g>
    </g>
</svg>